STARTFONT 2.1
COMMENT $XConsortium: luBIS08.bdf,v 1.7 94/04/02 16:22:12 gildea Exp $
COMMENT  (c) Copyright Bigelow & Holmes 1986, 1985. Lucida is a registered
COMMENT  trademark of Bigelow & Holmes. See LEGAL NOTICE file for terms 
COMMENT  of the license. 
COMMENT  
COMMENT  Translation to ISO8859-2 by Cub Soft;  Petr.Kolar@vslib.cz
COMMENT  
FONT -B&H-Lucida-Bold-I-Normal-Sans-11-80-100-100-P-69-ISO8859-2
SIZE 8 100 100
FONTBOUNDINGBOX 22 12 -7 -2
STARTPROPERTIES 20
COMMENT Begin LogicalFontDescription
FONTNAME_REGISTRY ""
FOUNDRY "B&H"
FAMILY_NAME "Lucida"
WEIGHT_NAME "Bold"
SLANT "I"
SETWIDTH_NAME "Normal"
ADD_STYLE_NAME "Sans"
PIXEL_SIZE 11
POINT_SIZE 80
RESOLUTION_X 100
RESOLUTION_Y 100
SPACING "P"
AVERAGE_WIDTH 69
CHARSET_REGISTRY "ISO8859"
CHARSET_ENCODING "2"
COMMENT END LogicalFontDescription
FONT_ASCENT 10
FONT_DESCENT 3
DEFAULT_CHAR 0
COPYRIGHT "Copyright Bigelow & Holmes 1986, 1985., Copyright 1996 Cub Soft"
FACE_NAME "Lucida Sans Bold Italic"
ENDPROPERTIES
CHARS 191
STARTCHAR space
ENCODING 32
SWIDTH 343 0
DWIDTH 4 0
BBX 1 1 0 0
BITMAP
00
ENDCHAR
STARTCHAR exclam
ENCODING 33
SWIDTH 343 0
DWIDTH 4 0
BBX 4 8 1 0
BITMAP
30
70
60
60
60
40
00
e0
ENDCHAR
STARTCHAR quotedbl
ENCODING 34
SWIDTH 530 0
DWIDTH 6 0
BBX 5 4 2 4
BITMAP
d8
d8
d8
d8
ENDCHAR
STARTCHAR numbersign
ENCODING 35
SWIDTH 687 0
DWIDTH 8 0
BBX 7 8 1 0
BITMAP
1a
14
7e
28
28
fc
50
b0
ENDCHAR
STARTCHAR dollar
ENCODING 36
SWIDTH 687 0
DWIDTH 8 0
BBX 7 11 1 -1
BITMAP
08
18
3e
6a
38
38
1c
1c
9c
f8
20
ENDCHAR
STARTCHAR percent
ENCODING 37
SWIDTH 908 0
DWIDTH 10 0
BBX 9 8 1 0
BITMAP
7180
d300
f600
ec00
1b80
3580
6580
c700
ENDCHAR
STARTCHAR ampersand
ENCODING 38
SWIDTH 816 0
DWIDTH 9 0
BBX 8 8 1 0
BITMAP
1c
36
34
3b
eb
ca
c4
7e
ENDCHAR
STARTCHAR apostrophe
ENCODING 39
SWIDTH 265 0
DWIDTH 3 0
BBX 3 4 1 4
BITMAP
60
e0
40
c0
ENDCHAR
STARTCHAR parenleft
ENCODING 40
SWIDTH 386 0
DWIDTH 4 0
BBX 4 10 1 -2
BITMAP
10
30
60
60
c0
c0
c0
c0
40
60
ENDCHAR
STARTCHAR parenright
ENCODING 41
SWIDTH 386 0
DWIDTH 4 0
BBX 4 10 0 -2
BITMAP
20
30
30
30
30
30
30
60
c0
80
ENDCHAR
STARTCHAR asterisk
ENCODING 42
SWIDTH 464 0
DWIDTH 5 0
BBX 4 4 2 4
BITMAP
20
d0
e0
a0
ENDCHAR
STARTCHAR plus
ENCODING 43
SWIDTH 687 0
DWIDTH 8 0
BBX 7 7 1 0
BITMAP
08
18
10
fe
10
30
20
ENDCHAR
STARTCHAR comma
ENCODING 44
SWIDTH 343 0
DWIDTH 4 0
BBX 3 4 0 -2
BITMAP
60
e0
40
c0
ENDCHAR
STARTCHAR minus
ENCODING 45
SWIDTH 687 0
DWIDTH 8 0
BBX 7 1 1 3
BITMAP
fe
ENDCHAR
STARTCHAR period
ENCODING 46
SWIDTH 343 0
DWIDTH 4 0
BBX 3 2 1 0
BITMAP
e0
e0
ENDCHAR
STARTCHAR slash
ENCODING 47
SWIDTH 596 0
DWIDTH 7 0
BBX 8 10 0 -2
BITMAP
03
02
04
0c
08
10
30
20
40
c0
ENDCHAR
STARTCHAR zero
ENCODING 48
SWIDTH 687 0
DWIDTH 8 0
BBX 7 8 1 0
BITMAP
1c
66
66
c6
c6
cc
cc
70
ENDCHAR
STARTCHAR one
ENCODING 49
SWIDTH 687 0
DWIDTH 8 0
BBX 4 8 3 0
BITMAP
f0
70
60
60
60
60
e0
c0
ENDCHAR
STARTCHAR two
ENCODING 50
SWIDTH 687 0
DWIDTH 8 0
BBX 7 8 1 0
BITMAP
7c
06
06
0c
18
20
60
fc
ENDCHAR
STARTCHAR three
ENCODING 51
SWIDTH 687 0
DWIDTH 8 0
BBX 7 8 1 0
BITMAP
7c
06
0e
78
0c
0c
0c
f8
ENDCHAR
STARTCHAR four
ENCODING 52
SWIDTH 687 0
DWIDTH 8 0
BBX 7 8 1 0
BITMAP
06
0e
14
2c
6c
fe
0c
18
ENDCHAR
STARTCHAR five
ENCODING 53
SWIDTH 687 0
DWIDTH 8 0
BBX 7 8 1 0
BITMAP
3e
60
40
78
1c
0c
1c
f8
ENDCHAR
STARTCHAR six
ENCODING 54
SWIDTH 687 0
DWIDTH 8 0
BBX 7 8 1 0
BITMAP
3e
62
60
fc
cc
cc
cc
78
ENDCHAR
STARTCHAR seven
ENCODING 55
SWIDTH 687 0
DWIDTH 8 0
BBX 6 8 2 0
BITMAP
fc
0c
18
30
20
60
c0
c0
ENDCHAR
STARTCHAR eight
ENCODING 56
SWIDTH 687 0
DWIDTH 8 0
BBX 7 8 1 0
BITMAP
3c
66
66
3c
7c
c6
cc
78
ENDCHAR
STARTCHAR nine
ENCODING 57
SWIDTH 687 0
DWIDTH 8 0
BBX 7 8 1 0
BITMAP
3c
66
66
66
7e
0c
8c
f8
ENDCHAR
STARTCHAR colon
ENCODING 58
SWIDTH 343 0
DWIDTH 4 0
BBX 3 6 1 0
BITMAP
60
60
00
00
c0
c0
ENDCHAR
STARTCHAR semicolon
ENCODING 59
SWIDTH 343 0
DWIDTH 4 0
BBX 4 8 0 -2
BITMAP
30
70
00
00
60
e0
60
c0
ENDCHAR
STARTCHAR less
ENCODING 60
SWIDTH 687 0
DWIDTH 8 0
BBX 7 7 1 0
BITMAP
02
0e
38
e0
30
1c
04
ENDCHAR
STARTCHAR equal
ENCODING 61
SWIDTH 687 0
DWIDTH 8 0
BBX 7 4 1 1
BITMAP
fe
00
00
fe
ENDCHAR
STARTCHAR greater
ENCODING 62
SWIDTH 687 0
DWIDTH 8 0
BBX 7 7 1 0
BITMAP
40
70
18
0e
38
e0
80
ENDCHAR
STARTCHAR question
ENCODING 63
SWIDTH 539 0
DWIDTH 6 0
BBX 5 8 2 0
BITMAP
f0
18
18
30
60
c0
00
c0
ENDCHAR
STARTCHAR at
ENCODING 64
SWIDTH 833 0
DWIDTH 9 0
BBX 9 8 1 0
BITMAP
1e00
2100
5e80
a480
ad00
b600
c000
3800
ENDCHAR
STARTCHAR A
ENCODING 65
SWIDTH 771 0
DWIDTH 8 0
BBX 8 8 0 0
BITMAP
0e
0e
16
36
26
7f
43
c3
ENDCHAR
STARTCHAR B
ENCODING 66
SWIDTH 660 0
DWIDTH 7 0
BBX 7 8 1 0
BITMAP
3e
66
66
6c
7c
6e
cc
fc
ENDCHAR
STARTCHAR C
ENCODING 67
SWIDTH 737 0
DWIDTH 8 0
BBX 8 8 1 0
BITMAP
1f
31
60
c0
c0
c0
e0
7e
ENDCHAR
STARTCHAR D
ENCODING 68
SWIDTH 822 0
DWIDTH 9 0
BBX 9 8 1 0
BITMAP
3f00
7380
6180
6180
6180
6300
e700
fc00
ENDCHAR
STARTCHAR E
ENCODING 69
SWIDTH 642 0
DWIDTH 7 0
BBX 7 8 1 0
BITMAP
3e
60
60
7c
60
60
c0
fc
ENDCHAR
STARTCHAR F
ENCODING 70
SWIDTH 614 0
DWIDTH 7 0
BBX 7 8 1 0
BITMAP
3e
60
60
7c
60
60
c0
c0
ENDCHAR
STARTCHAR G
ENCODING 71
SWIDTH 755 0
DWIDTH 8 0
BBX 8 8 1 0
BITMAP
1f
31
60
c0
c6
c6
e6
7e
ENDCHAR
STARTCHAR H
ENCODING 72
SWIDTH 813 0
DWIDTH 9 0
BBX 9 8 1 0
BITMAP
3180
7380
6300
7f00
6300
6300
c700
c600
ENDCHAR
STARTCHAR I
ENCODING 73
SWIDTH 361 0
DWIDTH 4 0
BBX 4 8 1 0
BITMAP
30
70
60
60
60
60
e0
c0
ENDCHAR
STARTCHAR J
ENCODING 74
SWIDTH 502 0
DWIDTH 6 0
BBX 6 10 0 -2
BITMAP
0c
0c
0c
18
18
18
18
18
30
e0
ENDCHAR
STARTCHAR K
ENCODING 75
SWIDTH 753 0
DWIDTH 8 0
BBX 8 8 1 0
BITMAP
33
76
6c
68
7c
6c
ee
c7
ENDCHAR
STARTCHAR L
ENCODING 76
SWIDTH 623 0
DWIDTH 7 0
BBX 6 8 1 0
BITMAP
70
60
60
60
60
e0
c0
fc
ENDCHAR
STARTCHAR M
ENCODING 77
SWIDTH 940 0
DWIDTH 10 0
BBX 10 8 1 0
BITMAP
71c0
71c0
7bc0
5b80
5d80
dd80
d980
c180
ENDCHAR
STARTCHAR N
ENCODING 78
SWIDTH 789 0
DWIDTH 9 0
BBX 8 8 1 0
BITMAP
63
73
73
5a
5a
ce
ce
c6
ENDCHAR
STARTCHAR O
ENCODING 79
SWIDTH 855 0
DWIDTH 9 0
BBX 9 8 1 0
BITMAP
1e00
3300
6180
c180
c300
c300
e600
7c00
ENDCHAR
STARTCHAR P
ENCODING 80
SWIDTH 645 0
DWIDTH 7 0
BBX 7 8 1 0
BITMAP
7e
66
66
6c
78
c0
c0
c0
ENDCHAR
STARTCHAR Q
ENCODING 81
SWIDTH 855 0
DWIDTH 9 0
BBX 9 10 1 -2
BITMAP
1e00
3300
6180
c180
c380
c300
e600
7c00
0700
0380
ENDCHAR
STARTCHAR R
ENCODING 82
SWIDTH 708 0
DWIDTH 8 0
BBX 7 8 1 0
BITMAP
7e
66
66
6c
78
d8
cc
ce
ENDCHAR
STARTCHAR S
ENCODING 83
SWIDTH 639 0
DWIDTH 7 0
BBX 7 8 1 0
BITMAP
3e
60
70
78
3c
0c
0c
f8
ENDCHAR
STARTCHAR T
ENCODING 84
SWIDTH 747 0
DWIDTH 8 0
BBX 8 8 2 0
BITMAP
ff
18
18
30
30
30
30
30
ENDCHAR
STARTCHAR U
ENCODING 85
SWIDTH 759 0
DWIDTH 8 0
BBX 8 8 1 0
BITMAP
63
63
63
e6
c6
c6
c4
7c
ENDCHAR
STARTCHAR V
ENCODING 86
SWIDTH 765 0
DWIDTH 8 0
BBX 8 8 2 0
BITMAP
c3
c2
e4
64
68
68
70
70
ENDCHAR
STARTCHAR W
ENCODING 87
SWIDTH 991 0
DWIDTH 11 0
BBX 10 8 2 0
BITMAP
ccc0
cc80
dd80
dd00
df00
ee00
ee00
ee00
ENDCHAR
STARTCHAR X
ENCODING 88
SWIDTH 696 0
DWIDTH 8 0
BBX 9 8 0 0
BITMAP
3180
3a00
1e00
1c00
1c00
3c00
6600
c600
ENDCHAR
STARTCHAR Y
ENCODING 89
SWIDTH 681 0
DWIDTH 7 0
BBX 7 8 2 0
BITMAP
c6
6c
68
70
30
60
60
60
ENDCHAR
STARTCHAR Z
ENCODING 90
SWIDTH 687 0
DWIDTH 8 0
BBX 8 8 1 0
BITMAP
3f
06
0e
1c
38
70
60
fe
ENDCHAR
STARTCHAR bracketleft
ENCODING 91
SWIDTH 386 0
DWIDTH 4 0
BBX 5 10 0 -2
BITMAP
38
30
20
60
60
60
60
40
c0
e0
ENDCHAR
STARTCHAR backslash
ENCODING 92
SWIDTH 566 0
DWIDTH 6 0
BBX 4 10 2 -2
BITMAP
80
40
40
40
40
20
20
20
20
10
ENDCHAR
STARTCHAR bracketright
ENCODING 93
SWIDTH 386 0
DWIDTH 4 0
BBX 5 10 0 -2
BITMAP
38
18
10
30
30
30
30
20
60
e0
ENDCHAR
STARTCHAR asciicircum
ENCODING 94
SWIDTH 687 0
DWIDTH 8 0
BBX 6 7 1 1
BITMAP
08
18
18
28
68
4c
c4
ENDCHAR
STARTCHAR underscore
ENCODING 95
SWIDTH 500 0
DWIDTH 6 0
BBX 5 1 0 -1
BITMAP
f8
ENDCHAR
STARTCHAR grave
ENCODING 96
SWIDTH 663 0
DWIDTH 7 0
BBX 3 1 4 7
BITMAP
e0
ENDCHAR
STARTCHAR a
ENCODING 97
SWIDTH 681 0
DWIDTH 7 0
BBX 7 6 1 0
BITMAP
3e
6e
4e
dc
fc
ec
ENDCHAR
STARTCHAR b
ENCODING 98
SWIDTH 681 0
DWIDTH 7 0
BBX 7 8 1 0
BITMAP
30
70
6e
7e
76
64
ec
f8
ENDCHAR
STARTCHAR c
ENCODING 99
SWIDTH 548 0
DWIDTH 6 0
BBX 6 6 1 0
BITMAP
3c
60
e0
c0
c8
78
ENDCHAR
STARTCHAR d
ENCODING 100
SWIDTH 681 0
DWIDTH 7 0
BBX 7 8 1 0
BITMAP
06
06
3e
6c
4c
dc
fc
fc
ENDCHAR
STARTCHAR e
ENCODING 101
SWIDTH 612 0
DWIDTH 7 0
BBX 6 6 1 0
BITMAP
3c
6c
cc
f0
c4
78
ENDCHAR
STARTCHAR f
ENCODING 102
SWIDTH 464 0
DWIDTH 5 0
BBX 6 10 1 -2
BITMAP
1c
30
78
60
60
60
60
c0
c0
c0
ENDCHAR
STARTCHAR g
ENCODING 103
SWIDTH 674 0
DWIDTH 7 0
BBX 7 8 1 -2
BITMAP
1e
26
6e
dc
fc
6c
8c
f8
ENDCHAR
STARTCHAR h
ENCODING 104
SWIDTH 675 0
DWIDTH 7 0
BBX 7 8 1 0
BITMAP
30
70
6e
7e
76
6e
ec
cc
ENDCHAR
STARTCHAR i
ENCODING 105
SWIDTH 343 0
DWIDTH 4 0
BBX 4 8 1 0
BITMAP
70
00
60
60
60
60
e0
c0
ENDCHAR
STARTCHAR j
ENCODING 106
SWIDTH 407 0
DWIDTH 4 0
BBX 6 10 0 -2
BITMAP
0c
00
1c
18
18
18
18
38
30
e0
ENDCHAR
STARTCHAR k
ENCODING 107
SWIDTH 666 0
DWIDTH 7 0
BBX 7 8 1 0
BITMAP
30
60
66
6c
78
78
dc
cc
ENDCHAR
STARTCHAR l
ENCODING 108
SWIDTH 343 0
DWIDTH 4 0
BBX 4 8 1 0
BITMAP
30
70
60
60
60
60
e0
c0
ENDCHAR
STARTCHAR m
ENCODING 109
SWIDTH 991 0
DWIDTH 11 0
BBX 10 6 1 0
BITMAP
6dc0
7dc0
7ec0
ecc0
cd80
cd80
ENDCHAR
STARTCHAR n
ENCODING 110
SWIDTH 675 0
DWIDTH 7 0
BBX 7 6 1 0
BITMAP
6e
7e
76
6e
ec
cc
ENDCHAR
STARTCHAR o
ENCODING 111
SWIDTH 663 0
DWIDTH 7 0
BBX 7 6 1 0
BITMAP
3c
6e
c6
cc
cc
70
ENDCHAR
STARTCHAR p
ENCODING 112
SWIDTH 681 0
DWIDTH 7 0
BBX 7 8 1 -2
BITMAP
7e
7e
76
64
6c
f8
c0
c0
ENDCHAR
STARTCHAR q
ENCODING 113
SWIDTH 681 0
DWIDTH 7 0
BBX 7 8 1 -2
BITMAP
3e
6e
4c
dc
fc
ec
0c
18
ENDCHAR
STARTCHAR r
ENCODING 114
SWIDTH 542 0
DWIDTH 6 0
BBX 6 6 1 0
BITMAP
6c
78
60
e0
c0
c0
ENDCHAR
STARTCHAR s
ENCODING 115
SWIDTH 527 0
DWIDTH 6 0
BBX 6 6 0 0
BITMAP
3c
60
70
38
98
f8
ENDCHAR
STARTCHAR t
ENCODING 116
SWIDTH 437 0
DWIDTH 5 0
BBX 4 8 1 0
BITMAP
60
60
f0
60
e0
c0
c0
e0
ENDCHAR
STARTCHAR u
ENCODING 117
SWIDTH 675 0
DWIDTH 7 0
BBX 7 6 1 0
BITMAP
66
6e
ec
dc
fc
ec
ENDCHAR
STARTCHAR v
ENCODING 118
SWIDTH 630 0
DWIDTH 7 0
BBX 7 6 1 0
BITMAP
c6
e4
e8
68
70
60
ENDCHAR
STARTCHAR w
ENCODING 119
SWIDTH 878 0
DWIDTH 10 0
BBX 9 6 2 0
BITMAP
cd80
dd00
dd00
ee00
ee00
cc00
ENDCHAR
STARTCHAR x
ENCODING 120
SWIDTH 563 0
DWIDTH 6 0
BBX 7 6 0 0
BITMAP
76
3c
38
38
78
cc
ENDCHAR
STARTCHAR y
ENCODING 121
SWIDTH 633 0
DWIDTH 7 0
BBX 8 8 0 -2
BITMAP
63
66
74
38
38
30
20
e0
ENDCHAR
STARTCHAR z
ENCODING 122
SWIDTH 630 0
DWIDTH 7 0
BBX 7 6 0 0
BITMAP
7e
0c
18
30
60
fc
ENDCHAR
STARTCHAR braceleft
ENCODING 123
SWIDTH 386 0
DWIDTH 4 0
BBX 4 10 1 -2
BITMAP
30
60
60
60
e0
c0
60
c0
c0
c0
ENDCHAR
STARTCHAR bar
ENCODING 124
SWIDTH 259 0
DWIDTH 3 0
BBX 3 10 1 -2
BITMAP
20
20
60
40
40
40
40
c0
80
80
ENDCHAR
STARTCHAR braceright
ENCODING 125
SWIDTH 386 0
DWIDTH 4 0
BBX 4 10 1 -2
BITMAP
30
30
30
60
30
70
60
60
60
c0
ENDCHAR
STARTCHAR asciitilde
ENCODING 126
SWIDTH 687 0
DWIDTH 8 0
BBX 7 3 1 2
BITMAP
62
92
8c
ENDCHAR
STARTCHAR nobreakspace
ENCODING 160
SWIDTH 343 0
DWIDTH 4 0
BBX 1 1 0 0
BITMAP
00
ENDCHAR
STARTCHAR Aogonek
ENCODING 161
SWIDTH 771 0
DWIDTH 8 0
BBX 8 9 0 -1
BITMAP
0e
0e
16
36
26
7f
43
c3
18
ENDCHAR
STARTCHAR breve
ENCODING 162
SWIDTH 663 0
DWIDTH 7 0
BBX 4 1 3 7
BITMAP
f0
ENDCHAR
STARTCHAR Lstroke
ENCODING 163
SWIDTH 623 0
DWIDTH 7 0
BBX 7 8 0 0
BITMAP
38
30
38
38
f0
e0
60
7e
ENDCHAR
STARTCHAR currency
ENCODING 164
SWIDTH 687 0
DWIDTH 8 0
BBX 9 8 0 0
BITMAP
6080
2100
3e00
3600
3600
3400
7a00
8300
ENDCHAR
STARTCHAR Lcaron
ENCODING 165
SWIDTH 810 0
DWIDTH 9 0
BBX 8 9 1 0
BITMAP
03
77
62
66
60
60
e0
c0
fc
ENDCHAR
STARTCHAR Sacute
ENCODING 166
SWIDTH 639 0
DWIDTH 7 0
BBX 7 10 1 0
BITMAP
38
00
3e
60
70
78
3c
0c
0c
f8
ENDCHAR
STARTCHAR section
ENCODING 167
SWIDTH 687 0
DWIDTH 8 0
BBX 7 10 1 -2
BITMAP
3e
30
78
3c
6c
64
78
1c
8c
f8
ENDCHAR
STARTCHAR diaeresis
ENCODING 168
SWIDTH 663 0
DWIDTH 7 0
BBX 4 1 3 7
BITMAP
f0
ENDCHAR
STARTCHAR Scaron
ENCODING 169
SWIDTH 639 0
DWIDTH 7 0
BBX 7 10 1 0
BITMAP
3c
00
3e
60
70
78
3c
0c
0c
f8
ENDCHAR
STARTCHAR Scedilla
ENCODING 170
SWIDTH 639 0
DWIDTH 7 0
BBX 7 10 1 -2
BITMAP
3e
60
70
78
3c
0c
0c
f8
18
18
ENDCHAR
STARTCHAR Tcaron
ENCODING 171
SWIDTH 747 0
DWIDTH 8 0
BBX 8 10 2 0
BITMAP
3c
00
ff
18
18
30
30
30
30
30
ENDCHAR
STARTCHAR Zacute
ENCODING 172
SWIDTH 687 0
DWIDTH 8 0
BBX 8 10 1 0
BITMAP
1c
00
3f
06
0e
1c
38
70
60
fe
ENDCHAR
STARTCHAR hyphen
ENCODING 173
SWIDTH 289 0
DWIDTH 3 0
BBX 3 1 1 3
BITMAP
e0
ENDCHAR
STARTCHAR Zcaron
ENCODING 174
SWIDTH 687 0
DWIDTH 8 0
BBX 8 10 1 0
BITMAP
1e
00
3f
06
0e
1c
38
70
60
fe
ENDCHAR
STARTCHAR Zabovedot
ENCODING 175
SWIDTH 687 0
DWIDTH 8 0
BBX 8 10 1 0
BITMAP
0c
00
3f
06
0e
1c
38
70
60
fe
ENDCHAR
STARTCHAR degree
ENCODING 176
SWIDTH 241 0
DWIDTH 3 0
BBX 3 2 3 6
BITMAP
e0
60
ENDCHAR
STARTCHAR aogonek
ENCODING 177
SWIDTH 681 0
DWIDTH 7 0
BBX 7 7 1 -1
BITMAP
3e
6e
4e
dc
fc
ec
18
ENDCHAR
STARTCHAR ogonek
ENCODING 178
SWIDTH 663 0
DWIDTH 7 0
BBX 2 1 3 -2
BITMAP
c0
ENDCHAR
STARTCHAR lstroke
ENCODING 179
SWIDTH 343 0
DWIDTH 4 0
BBX 5 8 0 0
BITMAP
30
30
38
30
e0
e0
60
60
ENDCHAR
STARTCHAR acute
ENCODING 180
SWIDTH 663 0
DWIDTH 7 0
BBX 3 1 4 7
BITMAP
e0
ENDCHAR
STARTCHAR lcaron
ENCODING 181
SWIDTH 720 0
DWIDTH 8 0
BBX 8 9 1 0
BITMAP
03
37
72
66
60
60
60
e0
c0
ENDCHAR
STARTCHAR sacute
ENCODING 182
SWIDTH 527 0
DWIDTH 6 0
BBX 6 8 0 0
BITMAP
38
00
3c
60
70
38
98
f8
ENDCHAR
STARTCHAR caron
ENCODING 183
SWIDTH 663 0
DWIDTH 7 0
BBX 4 1 3 7
BITMAP
f0
ENDCHAR
STARTCHAR cedilla
ENCODING 184
SWIDTH 663 0
DWIDTH 7 0
BBX 2 2 2 -2
BITMAP
c0
c0
ENDCHAR
STARTCHAR scaron
ENCODING 185
SWIDTH 527 0
DWIDTH 6 0
BBX 6 8 0 0
BITMAP
3c
00
3c
60
70
38
98
f8
ENDCHAR
STARTCHAR scedilla
ENCODING 186
SWIDTH 527 0
DWIDTH 6 0
BBX 6 8 0 -2
BITMAP
3c
60
70
38
98
f8
30
30
ENDCHAR
STARTCHAR tcaron
ENCODING 187
SWIDTH 720 0
DWIDTH 8 0
BBX 7 11 1 0
BITMAP
06
0e
04
6c
60
f0
60
e0
c0
c0
e0
ENDCHAR
STARTCHAR zacute
ENCODING 188
SWIDTH 630 0
DWIDTH 7 0
BBX 7 8 0 0
BITMAP
38
00
7e
0c
18
30
60
fc
ENDCHAR
STARTCHAR doubleacute
ENCODING 189
SWIDTH 663 0
DWIDTH 7 0
BBX 5 1 3 7
BITMAP
f8
ENDCHAR
STARTCHAR zcaron
ENCODING 190
SWIDTH 630 0
DWIDTH 7 0
BBX 7 8 0 0
BITMAP
3c
00
7e
0c
18
30
60
fc
ENDCHAR
STARTCHAR zabovedot
ENCODING 191
SWIDTH 630 0
DWIDTH 7 0
BBX 7 8 0 0
BITMAP
18
00
7e
0c
18
30
60
fc
ENDCHAR
STARTCHAR Racute
ENCODING 192
SWIDTH 708 0
DWIDTH 8 0
BBX 7 10 1 0
BITMAP
38
00
7e
66
66
6c
78
d8
cc
ce
ENDCHAR
STARTCHAR Aacute
ENCODING 193
SWIDTH 771 0
DWIDTH 8 0
BBX 8 9 0 0
BITMAP
03
0e
0e
16
36
26
7f
43
c3
ENDCHAR
STARTCHAR Acircumflex
ENCODING 194
SWIDTH 771 0
DWIDTH 8 0
BBX 8 9 0 0
BITMAP
07
0e
0e
16
36
26
7f
43
c3
ENDCHAR
STARTCHAR Abreve
ENCODING 195
SWIDTH 771 0
DWIDTH 8 0
BBX 8 10 0 0
BITMAP
0f
00
0e
0e
16
36
26
7f
43
c3
ENDCHAR
STARTCHAR Adiaeresis
ENCODING 196
SWIDTH 771 0
DWIDTH 8 0
BBX 8 9 0 0
BITMAP
0f
0e
0e
16
36
26
7f
43
c3
ENDCHAR
STARTCHAR Lacute
ENCODING 197
SWIDTH 623 0
DWIDTH 7 0
BBX 6 10 1 0
BITMAP
70
00
70
60
60
60
60
e0
c0
fc
ENDCHAR
STARTCHAR Cacute
ENCODING 198
SWIDTH 737 0
DWIDTH 8 0
BBX 8 10 1 0
BITMAP
1c
00
1f
31
60
c0
c0
c0
e0
7e
ENDCHAR
STARTCHAR Ccedilla
ENCODING 199
SWIDTH 737 0
DWIDTH 8 0
BBX 8 10 1 -2
BITMAP
1f
31
60
c0
c0
c0
e0
7e
20
30
ENDCHAR
STARTCHAR Ccaron
ENCODING 200
SWIDTH 737 0
DWIDTH 8 0
BBX 8 10 1 0
BITMAP
1e
00
1f
31
60
c0
c0
c0
e0
7e
ENDCHAR
STARTCHAR Eacute
ENCODING 201
SWIDTH 642 0
DWIDTH 7 0
BBX 7 9 1 0
BITMAP
08
3e
60
60
7c
60
60
c0
fc
ENDCHAR
STARTCHAR Eogonek
ENCODING 202
SWIDTH 642 0
DWIDTH 7 0
BBX 7 9 1 -1
BITMAP
3e
60
60
7c
60
60
c0
fc
18
ENDCHAR
STARTCHAR Ediaeresis
ENCODING 203
SWIDTH 642 0
DWIDTH 7 0
BBX 7 9 1 0
BITMAP
3c
3e
60
60
7c
60
60
c0
fc
ENDCHAR
STARTCHAR Ecaron
ENCODING 204
SWIDTH 642 0
DWIDTH 7 0
BBX 7 10 1 0
BITMAP
3c
00
3e
60
60
7c
60
60
c0
fc
ENDCHAR
STARTCHAR Iacute
ENCODING 205
SWIDTH 361 0
DWIDTH 4 0
BBX 5 9 1 0
BITMAP
38
30
70
60
60
60
60
e0
c0
ENDCHAR
STARTCHAR Icircumflex
ENCODING 206
SWIDTH 361 0
DWIDTH 4 0
BBX 5 9 1 0
BITMAP
78
30
70
60
60
60
60
e0
c0
ENDCHAR
STARTCHAR Dcaron
ENCODING 207
SWIDTH 822 0
DWIDTH 9 0
BBX 9 10 1 0
BITMAP
1e00
0000
3f00
7380
6180
6180
6180
6300
e700
fc00
ENDCHAR
STARTCHAR Dstroke
ENCODING 208
SWIDTH 822 0
DWIDTH 9 0
BBX 9 8 1 0
BITMAP
3f00
3380
7180
f980
6180
6300
6700
fc00
ENDCHAR
STARTCHAR Nacute
ENCODING 209
SWIDTH 789 0
DWIDTH 9 0
BBX 8 10 1 0
BITMAP
1c
00
63
73
73
5a
5a
ce
ce
c6
ENDCHAR
STARTCHAR Ncaron
ENCODING 210
SWIDTH 789 0
DWIDTH 9 0
BBX 8 10 1 0
BITMAP
1e
00
63
73
73
5a
5a
ce
ce
c6
ENDCHAR
STARTCHAR Oacute
ENCODING 211
SWIDTH 855 0
DWIDTH 9 0
BBX 9 9 1 0
BITMAP
0400
1e00
3300
6180
c180
c300
c300
e600
7c00
ENDCHAR
STARTCHAR Ocircumflex
ENCODING 212
SWIDTH 855 0
DWIDTH 9 0
BBX 9 9 1 0
BITMAP
0e00
1e00
3300
6180
c180
c300
c300
e600
7c00
ENDCHAR
STARTCHAR Odoubleacute
ENCODING 213
SWIDTH 855 0
DWIDTH 9 0
BBX 9 10 1 0
BITMAP
3e00
0000
1e00
3300
6180
c180
c300
c300
e600
7c00
ENDCHAR
STARTCHAR Odiaeresis
ENCODING 214
SWIDTH 855 0
DWIDTH 9 0
BBX 9 9 1 0
BITMAP
1e00
1e00
3300
6180
c180
c300
c300
e600
7c00
ENDCHAR
STARTCHAR multiply
ENCODING 215
SWIDTH 687 0
DWIDTH 8 0
BBX 7 7 1 0
BITMAP
42
66
38
10
38
4c
84
ENDCHAR
STARTCHAR Rcaron
ENCODING 216
SWIDTH 708 0
DWIDTH 8 0
BBX 7 10 1 0
BITMAP
3c
00
7e
66
66
6c
78
d8
cc
ce
ENDCHAR
STARTCHAR Uring
ENCODING 217
SWIDTH 759 0
DWIDTH 8 0
BBX 8 10 1 0
BITMAP
0c
00
63
63
63
e6
c6
c6
c4
7c
ENDCHAR
STARTCHAR Uacute
ENCODING 218
SWIDTH 759 0
DWIDTH 8 0
BBX 8 9 1 0
BITMAP
1c
63
63
63
e6
c6
c6
c4
7c
ENDCHAR
STARTCHAR Udoubleacute
ENCODING 219
SWIDTH 759 0
DWIDTH 8 0
BBX 8 10 1 0
BITMAP
3e
00
63
63
63
e6
c6
c6
c4
7c
ENDCHAR
STARTCHAR Udiaeresis
ENCODING 220
SWIDTH 759 0
DWIDTH 8 0
BBX 8 9 1 0
BITMAP
1e
63
63
63
e6
c6
c6
c4
7c
ENDCHAR
STARTCHAR Yacute
ENCODING 221
SWIDTH 681 0
DWIDTH 7 0
BBX 7 9 2 0
BITMAP
1c
c6
6c
68
70
30
60
60
60
ENDCHAR
STARTCHAR Tcedilla
ENCODING 222
SWIDTH 747 0
DWIDTH 8 0
BBX 8 10 2 -2
BITMAP
ff
18
18
30
30
30
30
30
18
18
ENDCHAR
STARTCHAR ssharp
ENCODING 223
SWIDTH 708 0
DWIDTH 8 0
BBX 7 10 1 -2
BITMAP
1c
36
3c
68
6c
66
66
7c
c0
c0
ENDCHAR
STARTCHAR racute
ENCODING 224
SWIDTH 542 0
DWIDTH 6 0
BBX 6 8 1 0
BITMAP
38
00
6c
78
60
e0
c0
c0
ENDCHAR
STARTCHAR aacute
ENCODING 225
SWIDTH 681 0
DWIDTH 7 0
BBX 7 7 1 0
BITMAP
08
3e
6e
4e
dc
fc
ec
ENDCHAR
STARTCHAR acircumflex
ENCODING 226
SWIDTH 681 0
DWIDTH 7 0
BBX 7 7 1 0
BITMAP
1c
3e
6e
4e
dc
fc
ec
ENDCHAR
STARTCHAR abreve
ENCODING 227
SWIDTH 681 0
DWIDTH 7 0
BBX 7 8 1 0
BITMAP
3c
00
3e
6e
4e
dc
fc
ec
ENDCHAR
STARTCHAR adiaeresis
ENCODING 228
SWIDTH 681 0
DWIDTH 7 0
BBX 7 7 1 0
BITMAP
1e
3e
6e
4e
dc
fc
ec
ENDCHAR
STARTCHAR lacute
ENCODING 229
SWIDTH 343 0
DWIDTH 4 0
BBX 4 10 1 0
BITMAP
70
00
30
70
60
60
60
60
e0
c0
ENDCHAR
STARTCHAR cacute
ENCODING 230
SWIDTH 548 0
DWIDTH 6 0
BBX 6 8 1 0
BITMAP
38
00
3c
60
e0
c0
c8
78
ENDCHAR
STARTCHAR ccedilla
ENCODING 231
SWIDTH 548 0
DWIDTH 6 0
BBX 6 8 1 -2
BITMAP
3c
60
e0
c0
c8
78
40
60
ENDCHAR
STARTCHAR ccaron
ENCODING 232
SWIDTH 548 0
DWIDTH 6 0
BBX 6 8 1 0
BITMAP
3c
00
3c
60
e0
c0
c8
78
ENDCHAR
STARTCHAR eacute
ENCODING 233
SWIDTH 612 0
DWIDTH 7 0
BBX 6 7 1 0
BITMAP
08
3c
6c
cc
f0
c4
78
ENDCHAR
STARTCHAR eogonek
ENCODING 234
SWIDTH 612 0
DWIDTH 7 0
BBX 6 7 1 -1
BITMAP
3c
6c
cc
f0
c4
78
30
ENDCHAR
STARTCHAR ediaeresis
ENCODING 235
SWIDTH 612 0
DWIDTH 7 0
BBX 6 7 1 0
BITMAP
3c
3c
6c
cc
f0
c4
78
ENDCHAR
STARTCHAR ecaron
ENCODING 236
SWIDTH 612 0
DWIDTH 7 0
BBX 6 8 1 0
BITMAP
3c
00
3c
6c
cc
f0
c4
78
ENDCHAR
STARTCHAR iacute
ENCODING 237
SWIDTH 343 0
DWIDTH 4 0
BBX 4 7 1 0
BITMAP
70
60
60
60
c0
c0
c0
ENDCHAR
STARTCHAR icircumflex
ENCODING 238
SWIDTH 343 0
DWIDTH 4 0
BBX 5 7 1 0
BITMAP
78
60
60
60
c0
c0
c0
ENDCHAR
STARTCHAR dcaron
ENCODING 239
SWIDTH 990 0
DWIDTH 11 0
BBX 11 9 1 0
BITMAP
0060
06e0
0640
3ec0
6c00
4c00
dc00
fc00
fc00
ENDCHAR
STARTCHAR dstroke
ENCODING 240
SWIDTH 810 0
DWIDTH 9 0
BBX 9 8 1 0
BITMAP
1f80
0600
3e00
6c00
4c00
dc00
fc00
fc00
ENDCHAR
STARTCHAR nacute
ENCODING 241
SWIDTH 675 0
DWIDTH 7 0
BBX 7 8 1 0
BITMAP
38
00
6e
7e
76
6e
ec
cc
ENDCHAR
STARTCHAR ncaron
ENCODING 242
SWIDTH 675 0
DWIDTH 7 0
BBX 7 8 1 0
BITMAP
3c
00
6e
7e
76
6e
ec
cc
ENDCHAR
STARTCHAR oacute
ENCODING 243
SWIDTH 663 0
DWIDTH 7 0
BBX 7 7 1 0
BITMAP
08
3c
6e
c6
cc
cc
70
ENDCHAR
STARTCHAR ocircumflex
ENCODING 244
SWIDTH 663 0
DWIDTH 7 0
BBX 7 7 1 0
BITMAP
1c
3c
6e
c6
cc
cc
70
ENDCHAR
STARTCHAR odoubleacute
ENCODING 245
SWIDTH 663 0
DWIDTH 7 0
BBX 7 8 1 0
BITMAP
7c
00
3c
6e
c6
cc
cc
70
ENDCHAR
STARTCHAR odiaeresis
ENCODING 246
SWIDTH 663 0
DWIDTH 7 0
BBX 7 7 1 0
BITMAP
1e
3c
6e
c6
cc
cc
70
ENDCHAR
STARTCHAR division
ENCODING 247
SWIDTH 687 0
DWIDTH 8 0
BBX 7 7 1 0
BITMAP
18
00
00
fe
00
00
30
ENDCHAR
STARTCHAR rcaron
ENCODING 248
SWIDTH 542 0
DWIDTH 6 0
BBX 6 8 1 0
BITMAP
3c
00
6c
78
60
e0
c0
c0
ENDCHAR
STARTCHAR uring
ENCODING 249
SWIDTH 675 0
DWIDTH 7 0
BBX 7 8 1 0
BITMAP
18
00
66
6e
ec
dc
fc
ec
ENDCHAR
STARTCHAR uacute
ENCODING 250
SWIDTH 675 0
DWIDTH 7 0
BBX 7 7 1 0
BITMAP
1c
66
6e
ec
dc
fc
ec
ENDCHAR
STARTCHAR udoubleacute
ENCODING 251
SWIDTH 675 0
DWIDTH 7 0
BBX 7 8 1 0
BITMAP
7c
00
66
6e
ec
dc
fc
ec
ENDCHAR
STARTCHAR udiaeresis
ENCODING 252
SWIDTH 675 0
DWIDTH 7 0
BBX 7 7 1 0
BITMAP
1e
66
6e
ec
dc
fc
ec
ENDCHAR
STARTCHAR yacute
ENCODING 253
SWIDTH 633 0
DWIDTH 7 0
BBX 8 9 0 -2
BITMAP
0e
63
66
74
38
38
30
20
e0
ENDCHAR
STARTCHAR tcedilla
ENCODING 254
SWIDTH 437 0
DWIDTH 5 0
BBX 4 10 1 -2
BITMAP
60
60
f0
60
e0
c0
c0
e0
60
60
ENDCHAR
STARTCHAR abovedot
ENCODING 255
SWIDTH 663 0
DWIDTH 7 0
BBX 2 1 4 7
BITMAP
c0
ENDCHAR
ENDFONT
